<svg width="50" height="50" viewBox="0 0 50 50" fill="none" xmlns="http://www.w3.org/2000/svg">
<path d="M17.7285 41.6665H17.5618C14.2043 41.6371 10.8952 40.8614 7.87434 39.3957C7.31866 39.1346 6.86112 38.7026 6.56872 38.1628C6.27631 37.623 6.16439 37.0037 6.24934 36.3957C6.34172 35.7835 6.62514 35.2162 7.05914 34.7747C7.49314 34.3333 8.05552 34.0402 8.666 33.9373C10.5381 33.6876 12.3391 33.0565 13.9577 32.0832C11.1476 29.8861 8.98423 26.9698 7.69688 23.6432C6.40952 20.3166 6.04611 16.7037 6.64517 13.1873C6.72639 12.6304 6.96593 12.1085 7.33527 11.6837C7.70461 11.259 8.1882 10.9493 8.7285 10.7915C9.25416 10.6264 9.81672 10.6194 10.3464 10.7712C10.876 10.9231 11.3493 11.2271 11.7077 11.6457C12.9243 13.2411 14.4533 14.5718 16.2012 15.5568C17.9492 16.5419 19.8795 17.1604 21.8743 17.3748C21.9696 14.9204 23.0244 12.6013 24.8118 10.9165C25.7043 10.0619 26.758 9.3934 27.9114 8.95007C29.0649 8.50673 30.295 8.29738 31.5302 8.33422C32.7653 8.37106 33.9808 8.65335 35.1058 9.16465C36.2307 9.67595 37.2427 10.406 38.0827 11.3123C38.3015 11.5058 38.5734 11.6291 38.8632 11.6663C39.1529 11.7034 39.4471 11.6527 39.7077 11.5207C40.2044 11.2864 40.7575 11.1982 41.3025 11.2664C41.8474 11.3346 42.3618 11.5563 42.7855 11.9058C43.2092 12.2552 43.5248 12.7179 43.6954 13.24C43.8661 13.762 43.8848 14.3218 43.7493 14.854C43.2688 16.8334 42.3584 18.6827 41.0827 20.2707C40.8015 26.1972 38.1886 31.7723 33.8138 35.7803C29.439 39.7883 23.657 41.9041 17.7285 41.6665ZM17.7285 37.4998H17.8952C20.3174 37.5832 22.7321 37.1848 24.9992 36.3279C27.2663 35.471 29.3408 34.1726 31.1023 32.5079C32.8639 30.8433 34.2775 28.8455 35.2611 26.6304C36.2448 24.4154 36.779 22.0271 36.8327 19.604C36.8671 18.9399 37.1409 18.3108 37.6035 17.8332C38.1116 17.1899 38.545 16.491 38.8952 15.7498C38.1446 15.7513 37.4023 15.5943 36.7166 15.2891C36.0309 14.984 35.4173 14.5375 34.916 13.979C34.4339 13.501 33.8613 13.124 33.2317 12.87C32.6021 12.616 31.9282 12.4902 31.2493 12.4998C30.5637 12.4821 29.8813 12.6 29.2414 12.8467C28.6014 13.0933 28.0165 13.464 27.5202 13.9373C26.8505 14.5728 26.3596 15.3729 26.0963 16.2577C25.8331 17.1425 25.8068 18.0809 26.0202 18.979L26.5618 21.354L24.1243 21.5207C21.6266 21.7243 19.1145 21.3827 16.7619 20.5193C14.4093 19.656 12.2724 18.2916 10.4993 16.5207C10.4233 19.2632 11.1093 21.973 12.4812 24.3489C13.8531 26.7249 15.857 28.6738 18.2702 29.979L20.2493 31.104L18.9368 32.979C17.5174 34.8405 15.5726 36.2338 13.3535 36.979C14.7771 37.3358 16.2401 37.5108 17.7077 37.4998H17.7285Z" fill="white"/>
</svg>
