<svg width="48" height="49" viewBox="0 0 48 49" fill="none" xmlns="http://www.w3.org/2000/svg">
<g clip-path="url(#clip0_1_5161)">
<path d="M13.24 21.7439C16.12 27.3804 20.76 31.9812 26.42 34.8692L30.82 30.4874C31.36 29.9497 32.16 29.7704 32.86 30.0094C35.1 30.7464 37.52 31.1447 40 31.1447C41.1 31.1447 42 32.041 42 33.1364V40.0874C42 41.1829 41.1 42.0791 40 42.0791C21.22 42.0791 6 26.9223 6 8.22022C6 7.12478 6.9 6.22852 8 6.22852H15C16.1 6.22852 17 7.12478 17 8.22022C17 10.7098 17.4 13.0999 18.14 15.3306C18.36 16.0277 18.2 16.8045 17.64 17.3621L13.24 21.7439Z" fill="white"/>
</g>
<defs>
<clipPath id="clip0_1_5161">
<rect width="48" height="47.8008" fill="white" transform="translate(0 0.253906)"/>
</clipPath>
</defs>
</svg>
